<svg xmlns="http://www.w3.org/2000/svg" viewBox="0 0 47.5 47.5">
  <defs>
    <clipPath id="a">
      <path d="M0 38h38V0H0v38z"/>
    </clipPath>
    <clipPath id="b">
      <path d="M1 19C1 9.059 9.059 1 19 1s18 8.059 18 18-8.059 18-18 18S1 28.941 1 19"/>
    </clipPath>
  </defs>
  <g clip-path="url(#a)" transform="matrix(1.25 0 0 -1.25 0 47.5)">
    <path fill="#88c9f9" d="M37 19c0-9.941-8.059-18-18-18S1 9.059 1 19s8.059 18 18 18 18-8.059 18-18"/>
  </g>
  <g clip-path="url(#b)" transform="matrix(1.25 0 0 -1.25 0 47.5)">
    <path fill="#5c913b" d="M8.6875 35.125c2.325-.436 3.438 0 4.312-.312.875-.313.063-.75.688-1.125s.812-.313 1.312-.125c.5.187.875.889 1.25.625.375-.265 1.688-.029 2.001-.5.312-.472.75-.842 1.437-.5.688.341 3.313.661 4 .236.688-.424 2.437-.5 3.125-.612.687-.111 2.437-.17 2.187-.46-.25-.29.688-.102.188-.79-.5-.687-2.438-2.124-2.625-1.937-.188.188-.375 1.063-1 1-.625-.062-1.5.125-1.562-.625-.063-.75-1-1.687-.313-1.687.688 0 1.375.687 1.562 0 .188-.688.063-1.063-.125-1.438-.187-.375.25-.375-.749-.625-1-.25-.563.562-1-.25-.438-.813-1.438-1.063-1.188-1.75.25-.688.438-1.063.5-1.625.063-.563-.625-1.25-1-1.75s-.812-1-1.375-1.125c-.562-.125-1-.25-1.312-1.062-.313-.813.341-2-.58-1.875-.92.125-1.42.687-1.483 1.125-.062.437-1 1.312-1.063 1.562-.062.25-1.25 1.125-1.25 1.125s-.75-.75-.75-1.625.25-1.937.25-1.937-.312-.438-.937.062-1.312.625-1.625 1.313c-.312.687-.687 1.874-.687 2.312 0 .437-.751 1.375-1.063 1.375-.313 0-1.875-.188-2-.438s-.5-.687-.812-1c-.313-.312-1.188-1.437-1.501-1.25-.312.188-1.562.875-1.562 1.5s-.875.25-.937 1.25c-.063 1-.5 1.875-.625.938-.125-.938-.063-1.25.312-2.375s.625-1.5 1.188-1.75c.562-.25.25-.687 1.187-.562s1.5.437 1.562.062c.063-.375.563-1.08-.375-1.696-.937-.616-.812-.679-1.375-1.241-.562-.563-1.124-.375-1.124-1.563 0-1.187 0-1.375.062-2.375.063-1 .188-1.937-.687-2.437-.875-.5-3.751 3-4.001 5-.25 2-1.312 8.687-.937 10.249.375 1.563 2.375 6.376 3.188 7.313.812.937 5.312 3.75 7.312 3.375M16.9375 15.6875c0-.687-.5-1.437 0-2.125s.937-.688 1.375-.75c.437-.063 1.688 0 .688.812-1.001.813-1.563.188-1.438 1.126.125.937-.625.937-.625.937"/>
    <path fill="#5c913b" d="M23.9375 25.6875c0-.687-.5-1.437 0-2.125s-1-1.25-.562-1.313c.437-.062 2.312.188 1.312 1-1 .813-.25.563-.125 1.501.125.937-.625.937-.625.937M19.3784 14.75c.437.826.934.812 1.434.437.5-.375 2-1.062 1.188-1.374-.813-.313-.573-1-1.193-.313-.62.688-1.926.313-1.429 1.25M23.3125 14.2412c.339-.175.875-.741 1.625-.679.75.063.688-.785 1.438-.767.75.017 1.437-.17 1.749-.545.313-.375 1.684-.938.905-1-.78-.063-1.092.5-1.904.75-.813.25-.875-.438-1.75.062-.876.5-1.813-.222-2.063.733-.25.955-.737 1.826 0 1.446M16.7153 9.5c.574.558.972.937 1.847 1.375.875.437 2.375 1.063 2.75 1.125.375.063.813.235 1.063-.26s.562-.678 1.062-.495c.5.184 1.087.076 1.462-.24.375-.317 1.288-.88 1.601-1.505.312-.625.937-.5.75-1.25-.188-.75.062-1.938-.625-2.563-.688-.624-1.125-1.374-1.875-1.749s-2.73.562-2.73 1.125c0 .562-.72 1.025-1.268 1.525-.549.5-.874.412-1.374.037-.5-.375-.316-.75-.941-.875s-2.289-1.437-2.226-.437c.062.999.907 2.75.504 3.312-.403.563-.898.001 0 .875"/>
    <path fill="red" d="M12.0833 27.2686c-1.0948-1.1757.76-3.1285 1.3084-4.6385.2016-.555.3586-1.1538.7254-1.6168.1324-.167.3113-.3063.508-.3882 1.822-.7584 3.997-1.4392 5.8656-.8047.6682.227 1.0674.939 1.4885 1.5053.2945.396.4516.8783.7085 1.2994.419.6866 1.718 1.278 1.3555 1.996-.3077.6095-1.83-.5674-2.0464.08-.2013.6027.8443 1.1485 1.477 1.2044.4966.044.968-1.0925 1.3068-.727.8914.962-.9028 2.9395-2.1686 3.283-1.729.4693-3.0458-2.1454-4.823-2.3716-1.9265-.2453-4.382 2.6-5.7055 1.1788z"/>
  </g>
  <path d="M21.23 28.55q-.2-1.44.08-2.64.32-1.2.88-2.2.6-1 1.32-1.84.76-.88 1.4-1.68.68-.84 1.12-1.64.44-.8.44-1.72 0-1.44-.88-2.32-.84-.88-2.36-.88-1.24 0-2.24.56-1 .56-1.88 1.52l-2.56-2.36q1.32-1.52 3.12-2.48 1.84-1 4.12-1 1.56 0 2.88.44 1.32.4 2.24 1.24.96.84 1.48 2.08.56 1.24.56 2.88 0 1.28-.48 2.32-.44 1-1.12 1.92-.68.92-1.48 1.76-.76.84-1.4 1.76-.6.92-1 1.96-.36 1.04-.2 2.32h-4.04zm2.04 9.08q-1.28 0-2.12-.88-.84-.88-.84-2.24 0-1.36.84-2.24.84-.88 2.12-.88 1.28 0 2.12.88.88.88.88 2.24 0 1.36-.88 2.24-.84.88-2.12.88z" style="-inkscape-font-specification:'Source Sans Pro Semi-Bold'" font-weight="600" font-size="32" font-family="Source Sans Pro" letter-spacing="0" word-spacing="0"/>
  <path d="M21.23 28.55q-.2-1.44.08-2.64.32-1.2.88-2.2.6-1 1.32-1.84.76-.88 1.4-1.68.68-.84 1.12-1.64.44-.8.44-1.72 0-1.44-.88-2.32-.84-.88-2.36-.88-1.24 0-2.24.56-1 .56-1.88 1.52l-2.56-2.36q1.32-1.52 3.12-2.48 1.84-1 4.12-1 1.56 0 2.88.44 1.32.4 2.24 1.24.96.84 1.48 2.08.56 1.24.56 2.88 0 1.28-.48 2.32-.44 1-1.12 1.92-.68.92-1.48 1.76-.76.84-1.4 1.76-.6.92-1 1.96-.36 1.04-.2 2.32h-4.04zm2.04 9.08q-1.28 0-2.12-.88-.84-.88-.84-2.24 0-1.36.84-2.24.84-.88 2.12-.88 1.28 0 2.12.88.88.88.88 2.24 0 1.36-.88 2.24-.84.88-2.12.88z" style="-inkscape-font-specification:'Source Sans Pro Semi-Bold'" font-weight="600" font-size="32" font-family="Source Sans Pro" letter-spacing="0" word-spacing="0"/>
</svg>
